<?xml version="1.0" encoding="UTF-8" standalone="no"?>
<!-- Created with Inkscape (http://www.inkscape.org/) -->

<svg
   xmlns:dc="http://purl.org/dc/elements/1.1/"
   xmlns:cc="http://creativecommons.org/ns#"
   xmlns:rdf="http://www.w3.org/1999/02/22-rdf-syntax-ns#"
   xmlns:svg="http://www.w3.org/2000/svg"
   xmlns="http://www.w3.org/2000/svg"
   xmlns:sodipodi="http://sodipodi.sourceforge.net/DTD/sodipodi-0.dtd"
   xmlns:inkscape="http://www.inkscape.org/namespaces/inkscape"
   version="1.1"
   id="svg2"
   xml:space="preserve"
   width="1225.9399"
   height="322.638"
   viewBox="0 0 1225.9399 322.638"
   sodipodi:docname="kendys.svg"
   inkscape:version="0.92.4 (5da689c313, 2019-01-14)"><metadata
     id="metadata8"><rdf:RDF><cc:Work
         rdf:about=""><dc:format>image/svg+xml</dc:format><dc:type
           rdf:resource="http://purl.org/dc/dcmitype/StillImage" /><dc:title></dc:title></cc:Work></rdf:RDF></metadata><defs
     id="defs6"><clipPath
       clipPathUnits="userSpaceOnUse"
       id="clipPath30"><path
         d="M 0,1080 H 1080 V 0 H 0 Z"
         id="path28"
         inkscape:connector-curvature="0" /></clipPath></defs><sodipodi:namedview
     pagecolor="#ffffff"
     bordercolor="#666666"
     borderopacity="1"
     objecttolerance="10"
     gridtolerance="10"
     guidetolerance="10"
     inkscape:pageopacity="0"
     inkscape:pageshadow="2"
     inkscape:window-width="1440"
     inkscape:window-height="786"
     id="namedview4"
     showgrid="false"
     fit-margin-top="80"
     fit-margin-left="30"
     fit-margin-right="30"
     fit-margin-bottom="80"
     inkscape:zoom="0.18885634"
     inkscape:cx="402.44287"
     inkscape:cy="-148.46428"
     inkscape:window-x="0"
     inkscape:window-y="27"
     inkscape:window-maximized="1"
     inkscape:current-layer="g10" /><g
     id="g10"
     inkscape:groupmode="layer"
     inkscape:label="AF Logo Kendys - RGB - Editable"
     transform="matrix(1.3333333,0,0,-1.3333333,-107.03006,881.31898)"><g
       id="g12"
       transform="rotate(-90,418.25055,102.8921)"><path
         d="M 0,0 12.911,-11.552 H 40.942 V -50.965 H -78.147 v 39.413 h 41.282 L -78.147,23.954 V 69.313 L -30.24,26.843 40.942,71.862 V 24.804 Z"
         style="fill:#000000;fill-opacity:1;fill-rule:nonzero;stroke:none"
         id="path14"
         inkscape:connector-curvature="0" /></g><g
       id="g16"
       transform="rotate(-90,500.13555,69.2546)"><path
         d="m 0,0 h 14.61 v 55.722 h 29.9 V 0 h 14.78 v 62.857 h 29.9 V -39.414 H -29.9 V 61.328 H 0 Z"
         style="fill:#000000;fill-opacity:1;fill-rule:nonzero;stroke:none"
         id="path18"
         inkscape:connector-curvature="0" /></g><g
       id="g20"
       transform="rotate(-90,533.68705,-53.4868)"><path
         d="M 0,0 -60.819,-46.889 H 0 v -35.845 h -119.09 v 32.958 l 61.159,47.057 H -119.09 V 32.958 H 0 Z"
         style="fill:#000000;fill-opacity:1;fill-rule:nonzero;stroke:none"
         id="path22"
         inkscape:connector-curvature="0" /></g><g
       id="g24"
       transform="rotate(-90,540.00005,540)"><g
         id="g26"
         clip-path="url(#clipPath30)"><g
           id="g32"
           transform="translate(569.2207,672.2842)"><path
             d="m 0,0 v 14.78 c 0,14.271 -11.213,23.445 -28.711,23.445 -17.668,0 -29.22,-10.024 -29.22,-25.313 V 0 Z m -88.511,13.761 c 0,39.244 23.275,64.726 59.46,64.726 36.186,0 59.63,-25.992 59.63,-66.255 v -51.645 h -119.09 z"
             style="fill:#000000;fill-opacity:1;fill-rule:nonzero;stroke:none"
             id="path34"
             inkscape:connector-curvature="0" /></g><g
           id="g36"
           transform="translate(599.7998,828.5781)"><path
             d="m 0,0 v -39.413 h -36.186 l -82.904,-43.491 v 39.244 l 45.869,23.953 -45.869,23.104 V 42.642 L -37.035,0 Z"
             style="fill:#000000;fill-opacity:1;fill-rule:nonzero;stroke:none"
             id="path38"
             inkscape:connector-curvature="0" /></g><g
           id="g40"
           transform="translate(493.1118,977.2275)"><path
             d="m 0,0 29.899,-14.271 c -6.625,-12.061 -13.93,-30.579 -13.93,-40.942 0,-4.417 1.359,-7.305 4.927,-7.305 14.95,0 5.606,61.668 48.757,61.668 26.502,0 38.224,-23.274 38.224,-50.116 0,-20.725 -6.965,-43.83 -19.027,-59.63 l -29.56,14.611 c 10.193,12.231 18.517,33.297 18.517,45.359 0,5.776 -1.868,9.514 -6.115,9.514 -15.46,0 -5.267,-61.669 -47.059,-61.669 -23.784,0 -38.734,20.047 -38.734,50.966 0,18.857 5.606,38.394 14.101,51.815"
             style="fill:#000000;fill-opacity:1;fill-rule:nonzero;stroke:none"
             id="path42"
             inkscape:connector-curvature="0" /></g><g
           id="g44"
           transform="translate(553.8154,102.7725)"><path
             d="M 0,0 -27.104,42.626 -67.003,0 Z"
             style="fill:#000000;fill-opacity:1;fill-rule:nonzero;stroke:none"
             id="path46"
             inkscape:connector-curvature="0" /></g><g
           id="g48"
           transform="translate(600.9893,102.7725)"><path
             d="M 0,0 -46.186,72.637 0,121.978 Z"
             style="fill:#c3a11f;fill-opacity:1;fill-rule:nonzero;stroke:none"
             id="path50"
             inkscape:connector-curvature="0" /></g><g
           id="g52"
           transform="translate(555.207,224.75)"><path
             d="M 0,0 -76.196,-81.402 V 0 Z"
             style="fill:#000000;fill-opacity:1;fill-rule:nonzero;stroke:none"
             id="path54"
             inkscape:connector-curvature="0" /></g></g></g></g></svg>