<?xml version="1.0" encoding="UTF-8" standalone="no"?>
<svg
   xmlns:dc="http://purl.org/dc/elements/1.1/"
   xmlns:cc="http://creativecommons.org/ns#"
   xmlns:rdf="http://www.w3.org/1999/02/22-rdf-syntax-ns#"
   xmlns:svg="http://www.w3.org/2000/svg"
   xmlns="http://www.w3.org/2000/svg"
   xmlns:sodipodi="http://sodipodi.sourceforge.net/DTD/sodipodi-0.dtd"
   xmlns:inkscape="http://www.inkscape.org/namespaces/inkscape"
   viewBox="0 0 400 489.53333"
   class="svg-logo"
   height="489.53333"
   width="400"
   xml:space="preserve"
   id="svg2"
   version="1.1"
   sodipodi:docname="kendys-cuadrado.svg"
   inkscape:version="0.92.4 (5da689c313, 2019-01-14)"><sodipodi:namedview
     pagecolor="#ffffff"
     bordercolor="#666666"
     borderopacity="1"
     objecttolerance="10"
     gridtolerance="10"
     guidetolerance="10"
     inkscape:pageopacity="0"
     inkscape:pageshadow="2"
     inkscape:window-width="1440"
     inkscape:window-height="786"
     id="namedview36"
     showgrid="false"
     fit-margin-top="0"
     fit-margin-left="0"
     fit-margin-right="0"
     fit-margin-bottom="0"
     inkscape:zoom="0.56835405"
     inkscape:cx="188.33458"
     inkscape:cy="300.86877"
     inkscape:window-x="0"
     inkscape:window-y="27"
     inkscape:window-maximized="1"
     inkscape:current-layer="svg2" /><metadata
     id="metadata8"><rdf:RDF><cc:Work
         rdf:about=""><dc:format>image/svg+xml</dc:format><dc:type
           rdf:resource="http://purl.org/dc/dcmitype/StillImage" /><dc:title></dc:title></cc:Work></rdf:RDF></metadata><defs
     id="defs6"><clipPath
       id="clipPath30"
       clipPathUnits="userSpaceOnUse"><path
         id="path28"
         d="M 0,1080 H 1080 V 0 H 0 Z"
         inkscape:connector-curvature="0" /></clipPath></defs><g
     transform="matrix(0.65082631,0,0,-0.65082631,-151.44631,596.21313)"
     id="g10"><g
       transform="translate(276.7959,200.2295)"
       id="g12"><path
         id="path14"
         style="fill:#000000;fill-opacity:1;fill-rule:nonzero;stroke:none"
         d="M 0,0 -9.958,-11.129 V -35.29 H -43.931 V 67.36 H -9.958 V 31.776 L 20.647,67.36 H 59.746 L 23.137,26.065 61.942,-35.29 H 21.379 Z"
         inkscape:connector-curvature="0" /></g><g
       transform="translate(376.3711,241.8174)"
       id="g16"><path
         id="path18"
         style="fill:#000000;fill-opacity:1;fill-rule:nonzero;stroke:none"
         d="M 0,0 V -12.594 H 48.031 V -38.366 H 0 V -51.105 H 54.181 V -76.878 H -33.973 V 25.772 H 52.863 V 0 Z"
         inkscape:connector-curvature="0" /></g><g
       transform="translate(511.0898,164.9395)"
       id="g20"><path
         id="path22"
         style="fill:#000000;fill-opacity:1;fill-rule:nonzero;stroke:none"
         d="M 0,0 -40.416,52.424 V 0 h -30.898 v 102.65 h 28.409 L -2.343,49.934 V 102.65 H 28.408 V 0 Z"
         inkscape:connector-curvature="0" /></g><g
       id="g24"><g
         clip-path="url(#clipPath30)"
         id="g26"><g
           transform="translate(584.4521,191.2979)"
           id="g32"><path
             id="path34"
             style="fill:#000000;fill-opacity:1;fill-rule:nonzero;stroke:none"
             d="m 0,0 h 12.74 c 12.301,0 20.208,9.664 20.208,24.747 0,15.23 -8.639,25.187 -21.819,25.187 H 0 Z m 11.861,76.292 c 33.827,0 55.792,-20.062 55.792,-51.252 0,-31.19 -22.404,-51.398 -57.109,-51.398 h -44.517 v 102.65 z"
             inkscape:connector-curvature="0" /></g><g
           transform="translate(719.1719,164.9395)"
           id="g36"><path
             id="path38"
             style="fill:#000000;fill-opacity:1;fill-rule:nonzero;stroke:none"
             d="m 0,0 h -33.974 v 31.19 l -37.487,71.46 h 33.827 L -16.986,63.113 2.929,102.65 H 36.755 L 0,31.923 Z"
             inkscape:connector-curvature="0" /></g><g
           transform="translate(847.3018,256.9004)"
           id="g40"><path
             id="path42"
             style="fill:#000000;fill-opacity:1;fill-rule:nonzero;stroke:none"
             d="m 0,0 -12.301,-25.772 c -10.396,5.71 -26.358,12.007 -35.291,12.007 -3.806,0 -6.297,-1.172 -6.297,-4.247 0,-12.885 53.157,-4.832 53.157,-42.026 0,-22.844 -20.062,-32.948 -43.199,-32.948 -17.865,0 -37.78,6.004 -51.398,16.4 l 12.593,25.481 c 10.544,-8.787 28.702,-15.962 39.098,-15.962 4.979,0 8.2,1.61 8.2,5.271 0,13.326 -53.156,4.54 -53.156,40.563 0,20.501 17.281,33.387 43.931,33.387 C -28.408,12.154 -11.568,7.321 0,0"
             inkscape:connector-curvature="0" /></g><g
           transform="translate(609.5088,301.6494)"
           id="g44"><path
             id="path46"
             style="fill:#000000;fill-opacity:1;fill-rule:nonzero;stroke:none"
             d="M 0,0 -136.527,214.719 -337.513,0 Z"
             inkscape:connector-curvature="0" /></g><g
           transform="translate(847.1348,301.6494)"
           id="g48"><path
             id="path50"
             style="fill:#c3a11f;fill-opacity:1;fill-rule:nonzero;stroke:none"
             d="M 0,0 -232.649,365.89 0,614.437 Z"
             inkscape:connector-curvature="0" /></g><g
           transform="translate(616.5215,916.0859)"
           id="g52"><path
             id="path54"
             style="fill:#000000;fill-opacity:1;fill-rule:nonzero;stroke:none"
             d="M 0,0 -383.823,-410.048 V 0 Z"
             inkscape:connector-curvature="0" /></g></g></g></g></svg>