<?xml version="1.0" encoding="UTF-8" standalone="no"?>
<!-- Created with Inkscape (http://www.inkscape.org/) -->

<svg
   xmlns:dc="http://purl.org/dc/elements/1.1/"
   xmlns:cc="http://creativecommons.org/ns#"
   xmlns:rdf="http://www.w3.org/1999/02/22-rdf-syntax-ns#"
   xmlns:svg="http://www.w3.org/2000/svg"
   xmlns="http://www.w3.org/2000/svg"
   xmlns:sodipodi="http://sodipodi.sourceforge.net/DTD/sodipodi-0.dtd"
   xmlns:inkscape="http://www.inkscape.org/namespaces/inkscape"
   version="1.1"
   id="svg2"
   xml:space="preserve"
   width="109.0568"
   height="109.0628"
   viewBox="0 0 109.0568 109.0628"
   sodipodi:docname="email.svg"
   inkscape:version="0.92.3 (2405546, 2018-03-11)"><metadata
     id="metadata8"><rdf:RDF><cc:Work
         rdf:about=""><dc:format>image/svg+xml</dc:format><dc:type
           rdf:resource="http://purl.org/dc/dcmitype/StillImage" /><dc:title></dc:title></cc:Work></rdf:RDF></metadata><defs
     id="defs6"><clipPath
       clipPathUnits="userSpaceOnUse"
       id="clipPath20"><path
         d="m 622.5,3179 h 775.999 v 375 H 622.5 Z"
         id="path18"
         inkscape:connector-curvature="0" /></clipPath><clipPath
       clipPathUnits="userSpaceOnUse"
       id="clipPath32"><path
         d="M 0,0 H 1400 V 4500 H 0 Z"
         id="path30"
         inkscape:connector-curvature="0" /></clipPath><clipPath
       clipPathUnits="userSpaceOnUse"
       id="clipPath40"><path
         d="M 613.5,3562 H 1409 V 3178 H 613.5 Z"
         id="path38"
         inkscape:connector-curvature="0" /></clipPath><clipPath
       clipPathUnits="userSpaceOnUse"
       id="clipPath44"><path
         d="M -32768,32767 H 32767 V -32768 H -32768 Z"
         id="path42"
         inkscape:connector-curvature="0" /></clipPath><linearGradient
       x1="0"
       y1="0"
       x2="1"
       y2="0"
       gradientUnits="userSpaceOnUse"
       gradientTransform="matrix(-4.7468042,543.92993,543.92993,4.7468042,960.97168,3266.559)"
       spreadMethod="pad"
       id="linearGradient50"><stop
         style="stop-opacity:1;stop-color:#ffffff"
         offset="0"
         id="stop46" /><stop
         style="stop-opacity:0;stop-color:#ffffff"
         offset="1"
         id="stop48" /></linearGradient><mask
       maskUnits="userSpaceOnUse"
       x="0"
       y="0"
       width="1"
       height="1"
       id="mask52"><g
         id="g62"><g
           clip-path="url(#clipPath44)"
           id="g60"><g
             id="g58"><g
               id="g56"><path
                 d="M -32768,32767 H 32767 V -32768 H -32768 Z"
                 style="fill:url(#linearGradient50);stroke:none"
                 id="path54"
                 inkscape:connector-curvature="0" /></g></g></g></g></mask><clipPath
       clipPathUnits="userSpaceOnUse"
       id="clipPath66"><path
         d="M 613.5,3562 H 1409 V 3178 H 613.5 Z"
         id="path64"
         inkscape:connector-curvature="0" /></clipPath><clipPath
       clipPathUnits="userSpaceOnUse"
       id="clipPath94"><path
         d="m 0.5,3841 h 1399 v 659 H 0.5 Z"
         id="path92"
         inkscape:connector-curvature="0" /></clipPath><clipPath
       clipPathUnits="userSpaceOnUse"
       id="clipPath108"><path
         d="M 0,0 H 1400 V 4500 H 0 Z"
         id="path106"
         inkscape:connector-curvature="0" /></clipPath><clipPath
       clipPathUnits="userSpaceOnUse"
       id="clipPath116"><path
         d="M -8.5,4508 H 1408 V 3840.5 H -8.5 Z"
         id="path114"
         inkscape:connector-curvature="0" /></clipPath><clipPath
       clipPathUnits="userSpaceOnUse"
       id="clipPath146"><path
         d="M 0,0 H 1400 V 4500 H 0 Z"
         id="path144"
         inkscape:connector-curvature="0" /></clipPath><clipPath
       clipPathUnits="userSpaceOnUse"
       id="clipPath162"><path
         d="M 0,0 H 1400 V 4500 H 0 Z"
         id="path160"
         inkscape:connector-curvature="0" /></clipPath><clipPath
       clipPathUnits="userSpaceOnUse"
       id="clipPath182"><path
         d="M 0,0 H 1400 V 4500 H 0 Z"
         id="path180"
         inkscape:connector-curvature="0" /></clipPath><clipPath
       clipPathUnits="userSpaceOnUse"
       id="clipPath198"><path
         d="M 0,0 H 1400 V 4500 H 0 Z"
         id="path196"
         inkscape:connector-curvature="0" /></clipPath><clipPath
       clipPathUnits="userSpaceOnUse"
       id="clipPath246"><path
         d="m 0.5,1736.5 h 1399 v 234.111 H 0.5 Z"
         id="path244"
         inkscape:connector-curvature="0" /></clipPath><clipPath
       clipPathUnits="userSpaceOnUse"
       id="clipPath264"><path
         d="M 69.501,642.5 H 365.94 V 982.903 H 69.501 Z"
         id="path262"
         inkscape:connector-curvature="0" /></clipPath><clipPath
       clipPathUnits="userSpaceOnUse"
       id="clipPath278"><path
         d="M 390.434,642.5 H 684.646 V 982.903 H 390.434 Z"
         id="path276"
         inkscape:connector-curvature="0" /></clipPath><clipPath
       clipPathUnits="userSpaceOnUse"
       id="clipPath292"><path
         d="M 715.355,642.5 H 1003.35 V 982.903 H 715.355 Z"
         id="path290"
         inkscape:connector-curvature="0" /></clipPath><clipPath
       clipPathUnits="userSpaceOnUse"
       id="clipPath306"><path
         d="m 1030.468,642.5 h 291.587 v 340.403 h -291.587 z"
         id="path304"
         inkscape:connector-curvature="0" /></clipPath><clipPath
       clipPathUnits="userSpaceOnUse"
       id="clipPath370"><path
         d="M 0,0 H 1400 V 4500 H 0 Z"
         id="path368"
         inkscape:connector-curvature="0" /></clipPath><clipPath
       clipPathUnits="userSpaceOnUse"
       id="clipPath400"><path
         d="M 0,0 H 1400 V 4500 H 0 Z"
         id="path398"
         inkscape:connector-curvature="0" /></clipPath><clipPath
       clipPathUnits="userSpaceOnUse"
       id="clipPath424"><path
         d="m 0,2446.985 h 464.032 v 476.373 H 0 Z"
         id="path422"
         inkscape:connector-curvature="0" /></clipPath><clipPath
       clipPathUnits="userSpaceOnUse"
       id="clipPath436"><path
         d="m 464.033,1970.611 h 464.032 v 476.373 H 464.033 Z"
         id="path434"
         inkscape:connector-curvature="0" /></clipPath><clipPath
       clipPathUnits="userSpaceOnUse"
       id="clipPath448"><path
         d="m 930.532,2446.985 h 469.467 v 476.373 H 930.532 Z"
         id="path446"
         inkscape:connector-curvature="0" /></clipPath><clipPath
       clipPathUnits="userSpaceOnUse"
       id="clipPath524"><path
         d="m 36,1436.181 h 331.411 v 258.818 H 36 Z"
         id="path522"
         inkscape:connector-curvature="0" /></clipPath><clipPath
       clipPathUnits="userSpaceOnUse"
       id="clipPath536"><path
         d="m 368.195,1436.181 h 331.413 v 258.818 H 368.195 Z"
         id="path534"
         inkscape:connector-curvature="0" /></clipPath><clipPath
       clipPathUnits="userSpaceOnUse"
       id="clipPath550"><path
         d="m 368.196,1182.068 h 331.412 v 258.819 H 368.196 Z"
         id="path548"
         inkscape:connector-curvature="0" /></clipPath><clipPath
       clipPathUnits="userSpaceOnUse"
       id="clipPath564"><path
         d="m 700.392,1182.068 h 331.412 v 258.819 H 700.392 Z"
         id="path562"
         inkscape:connector-curvature="0" /></clipPath><clipPath
       clipPathUnits="userSpaceOnUse"
       id="clipPath578"><path
         d="M 1032.587,1436.182 H 1364 V 1695 h -331.413 z"
         id="path576"
         inkscape:connector-curvature="0" /></clipPath><clipPath
       clipPathUnits="userSpaceOnUse"
       id="clipPath590"><path
         d="M 1032.587,1182.069 H 1364 v 258.818 h -331.413 z"
         id="path588"
         inkscape:connector-curvature="0" /></clipPath><clipPath
       clipPathUnits="userSpaceOnUse"
       id="clipPath602"><path
         d="M 0,0 H 1400 V 4500 H 0 Z"
         id="path600"
         inkscape:connector-curvature="0" /></clipPath><clipPath
       clipPathUnits="userSpaceOnUse"
       id="clipPath610"><path
         d="m -9,1980.5 h 1418 v -245 H -9 Z"
         id="path608"
         inkscape:connector-curvature="0" /></clipPath><clipPath
       clipPathUnits="userSpaceOnUse"
       id="clipPath614"><path
         d="m 0,1736.5 h 1400 v 236.001 H 0 Z"
         id="path612"
         inkscape:connector-curvature="0" /></clipPath><clipPath
       clipPathUnits="userSpaceOnUse"
       id="clipPath662"><path
         d="M 0,0 H 1400 V 4500 H 0 Z"
         id="path660"
         inkscape:connector-curvature="0" /></clipPath><clipPath
       clipPathUnits="userSpaceOnUse"
       id="clipPath702"><path
         d="M 0,0 H 1400 V 4500 H 0 Z"
         id="path700"
         inkscape:connector-curvature="0" /></clipPath><clipPath
       clipPathUnits="userSpaceOnUse"
       id="clipPath742"><path
         d="M 0,0 H 1400 V 4500 H 0 Z"
         id="path740"
         inkscape:connector-curvature="0" /></clipPath><clipPath
       clipPathUnits="userSpaceOnUse"
       id="clipPath762"><path
         d="m 1193.019,322.807 h 28.683 v 24.004 h -28.683 z"
         id="path760"
         inkscape:connector-curvature="0" /></clipPath><clipPath
       clipPathUnits="userSpaceOnUse"
       id="clipPath774"><path
         d="M 0,0 H 1400 V 4500 H 0 Z"
         id="path772"
         inkscape:connector-curvature="0" /></clipPath><clipPath
       clipPathUnits="userSpaceOnUse"
       id="clipPath890"><path
         d="M 0,0 H 1400 V 4500 H 0 Z"
         id="path888"
         inkscape:connector-curvature="0" /></clipPath><clipPath
       clipPathUnits="userSpaceOnUse"
       id="clipPath902"><path
         d="m 700.392,1436.181 h 331.412 v 258.818 H 700.392 Z"
         id="path900"
         inkscape:connector-curvature="0" /></clipPath><clipPath
       clipPathUnits="userSpaceOnUse"
       id="clipPath914"><path
         d="m 36,1182.069 h 331.411 v 258.818 H 36 Z"
         id="path912"
         inkscape:connector-curvature="0" /></clipPath><clipPath
       clipPathUnits="userSpaceOnUse"
       id="clipPath926"><path
         d="M 0,0 H 1400 V 4500 H 0 Z"
         id="path924"
         inkscape:connector-curvature="0" /></clipPath><clipPath
       clipPathUnits="userSpaceOnUse"
       id="clipPath934"><path
         d="M 217.639,4377.12 H 631.5 v -84.77 H 217.639 Z"
         id="path932"
         inkscape:connector-curvature="0" /></clipPath><clipPath
       clipPathUnits="userSpaceOnUse"
       id="clipPath950"><path
         d="m 923.679,3968.74 h 413.861 v -84.77 H 923.679 Z"
         id="path948"
         inkscape:connector-curvature="0" /></clipPath><clipPath
       clipPathUnits="userSpaceOnUse"
       id="clipPath980"><path
         d="M 0,0 H 1400 V 4500 H 0 Z"
         id="path978"
         inkscape:connector-curvature="0" /></clipPath><clipPath
       clipPathUnits="userSpaceOnUse"
       id="clipPath988"><path
         d="M 27,1703 H 1373 V 1181.07 H 27 Z"
         id="path986"
         inkscape:connector-curvature="0" /></clipPath><clipPath
       clipPathUnits="userSpaceOnUse"
       id="clipPath1004"><path
         d="m 107.001,4395.257 h 99.951 v 101.198 h -99.951 z"
         id="path1002"
         inkscape:connector-curvature="0" /></clipPath></defs><sodipodi:namedview
     pagecolor="#ffffff"
     bordercolor="#666666"
     borderopacity="1"
     objecttolerance="10"
     gridtolerance="10"
     guidetolerance="10"
     inkscape:pageopacity="0"
     inkscape:pageshadow="2"
     inkscape:window-width="1546"
     inkscape:window-height="845"
     id="namedview4"
     showgrid="false"
     inkscape:zoom="2.5173333"
     inkscape:cx="105.83764"
     inkscape:cy="48.065935"
     inkscape:window-x="54"
     inkscape:window-y="27"
     inkscape:window-maximized="1"
     inkscape:current-layer="g10"
     fit-margin-top="0"
     fit-margin-left="0"
     fit-margin-right="0"
     fit-margin-bottom="0" /><g
     id="g10"
     inkscape:groupmode="layer"
     inkscape:label="Kendys"
     transform="matrix(1.3333333,0,0,-1.3333333,-284.79294,492.72795)"><path
       style="fill:#ffffff;fill-opacity:1;fill-rule:nonzero;stroke:none;stroke-width:0.99999994"
       d="m 254.48893,369.54187 c -0.87753,0 -1.75476,-0.2827 -2.48506,-0.8525 l -5.92021,-4.5951 H 231.3099 c -2.2581,0 -4.0881,-1.8298 -4.0881,-4.0881 v -10.5539 l -13.10732,-10.184 c -0.0233,-0.033 -0.0333,-0.043 -0.0535,-0.063 -0.0685,-0.063 -0.12907,-0.133 -0.18029,-0.2095 -0.0536,-0.063 -0.0978,-0.1364 -0.13638,-0.2096 -0.0333,-0.076 -0.0609,-0.153 -0.0778,-0.2328 -0.0299,-0.086 -0.0499,-0.1797 -0.0585,-0.2728 0,-0.034 -0.0133,-0.053 -0.0133,-0.083 v -46.3579 c 0.002,-0.8662 0.28174,-1.7074 0.79913,-2.4023 0.01,0 0.01,-0.033 0.02,-0.04 0.01,0 0.0299,-0.033 0.0439,-0.04 0.76766,-1.0074 1.95977,-1.6038 3.22568,-1.6085 h 73.61537 c 1.27017,0 2.46499,0.6044 3.23053,1.6179 0.0133,0 0.0266,0.033 0.0389,0.033 0.007,0 0.01,0.033 0.02,0.04 0.51748,0.6949 0.79696,1.5362 0.79909,2.4023 v 46.353 c 0,0.033 -0.0133,0.053 -0.0133,0.083 -0.007,0.093 -0.0299,0.1896 -0.0585,0.2794 -0.02,0.08 -0.0409,0.1563 -0.0732,0.2328 -0.0386,0.073 -0.0901,0.1464 -0.14137,0.2096 -0.0535,0.077 -0.11175,0.1463 -0.18029,0.2095 -0.0233,0.033 -0.0333,0.043 -0.0535,0.063 l -13.10732,10.1841 v 10.5538 c 0,2.2583 -1.83486,4.0882 -4.09296,4.0882 h -14.77376 l -5.91535,4.595 c -0.73133,0.5698 -1.6075,0.8525 -2.48503,0.8525 z m -0.003,-2.7236 c 0.28773,0 0.5753,-0.093 0.81373,-0.2827 l 3.14285,-2.4413 h -7.90824 l 3.138,2.4413 c 0.2385,0.1896 0.52613,0.2827 0.81373,0.2827 z m -23.17403,-5.4522 h 46.35316 c 0.75269,0 1.36431,-0.6068 1.36431,-1.3599 v -24.5382 c 0,-0.7528 0.61162,-1.3645 1.36434,-1.3645 0.75269,0 1.36431,0.6117 1.36431,1.3645 v 10.5296 l 9.58928,-7.4501 -22.74044,-17.6537 c -0.39131,-0.296 -0.59253,-0.7813 -0.52623,-1.2667 0.0642,-0.4876 0.38745,-0.9027 0.84293,-1.0867 0.45548,-0.1829 0.97456,-0.1064 1.35946,0.1996 l 22.37993,17.3756 v -43.5122 l -35.687,27.7153 c -1.46267,1.1376 -3.50955,1.1376 -4.97009,0 l -35.68696,-27.7153 v 43.5122 l 22.33602,-17.3467 c 0.59662,-0.4617 1.45306,-0.3506 1.91496,0.2429 0.46186,0.5944 0.35568,1.4483 -0.23884,1.91 l -22.6966,17.6244 9.58929,7.45 v -10.5296 c 0,-0.7527 0.61161,-1.3644 1.3643,-1.3644 0.75273,0 1.35946,0.6117 1.35949,1.3644 v 24.5383 c 0,0.7531 0.61162,1.3598 1.36431,1.3598 z m 23.17902,-2.724 c -9.03464,0 -16.36223,-7.3253 -16.36223,-16.3621 0,-9.035 7.32759,-16.3577 16.36223,-16.3577 0.75269,0 1.36431,0.6097 1.36431,1.3645 0,0.7527 -0.61162,1.3644 -1.36431,1.3644 -7.52923,0 -13.63358,6.0996 -13.63358,13.6288 0,7.5293 6.10435,13.6385 13.63358,13.6385 7.52923,0 13.62869,-6.1092 13.62869,-13.6385 v -5.4526 c 0,-1.5055 -1.21838,-2.7239 -2.72379,-2.7239 -1.50545,0 -2.72869,1.2184 -2.72869,2.7239 v 5.4526 c 0,0.7525 -0.60673,1.3642 -1.35945,1.3642 -0.75272,0 -1.36434,-0.6117 -1.36434,-1.3642 0,-3.011 -2.44159,-5.4526 -5.45242,-5.4526 -3.01086,0 -5.45245,2.4416 -5.45245,5.4526 0,3.0127 2.44159,5.4573 5.45245,5.4573 0.75269,0 1.36431,0.6114 1.36431,1.3641 0,0.7528 -0.61162,1.3645 -1.36431,1.3645 -3.6609,0 -6.88099,-2.4199 -7.88389,-5.9396 -1.0029,-3.5223 0.45112,-7.2801 3.56677,-9.2047 3.1156,-1.9223 7.1294,-1.5408 9.82801,0.9357 0.29505,-2.8826 2.80074,-5.0265 5.69611,-4.8725 2.89321,0.1531 5.16102,2.5451 5.15035,5.4426 v 5.4526 c 0,9.0368 -7.3227,16.3621 -16.35735,16.3621 z m -0.003,-40.1892 c 0.28773,0 0.57529,-0.093 0.81372,-0.2827 l 35.65297,-27.691 h -72.9283 l 35.64798,27.691 c 0.2385,0.1896 0.52613,0.2827 0.81373,0.2827 z"
       id="path778-3"
       inkscape:connector-curvature="0" /></g></svg>