<?xml version="1.0" encoding="UTF-8" standalone="no"?>
<!-- Created with Inkscape (http://www.inkscape.org/) -->

<svg
   xmlns:dc="http://purl.org/dc/elements/1.1/"
   xmlns:cc="http://creativecommons.org/ns#"
   xmlns:rdf="http://www.w3.org/1999/02/22-rdf-syntax-ns#"
   xmlns:svg="http://www.w3.org/2000/svg"
   xmlns="http://www.w3.org/2000/svg"
   xmlns:sodipodi="http://sodipodi.sourceforge.net/DTD/sodipodi-0.dtd"
   xmlns:inkscape="http://www.inkscape.org/namespaces/inkscape"
   version="1.1"
   id="svg2"
   width="746"
   height="749"
   viewBox="0 0 746 749"
   sodipodi:docname="kendys-logo-blanco.svg"
   inkscape:version="0.92.3 (2405546, 2018-03-11)"
   inkscape:export-filename="/home/david/aplicaciones/Freelancer/kendys/public/images/iconos/kendys-logo.png"
   inkscape:export-xdpi="64.339996"
   inkscape:export-ydpi="64.339996">
  <metadata
     id="metadata8">
    <rdf:RDF>
      <cc:Work
         rdf:about="">
        <dc:format>image/svg+xml</dc:format>
        <dc:type
           rdf:resource="http://purl.org/dc/dcmitype/StillImage" />
        <dc:title />
      </cc:Work>
    </rdf:RDF>
  </metadata>
  <defs
     id="defs6">
    <inkscape:path-effect
       only_selected="false"
       apply_with_weight="true"
       apply_no_weight="true"
       helper_size="0"
       steps="2"
       weight="33.333333"
       is_visible="true"
       id="path-effect1004"
       effect="bspline" />
    <inkscape:path-effect
       effect="bspline"
       id="path-effect1000"
       is_visible="true"
       weight="33.333333"
       steps="2"
       helper_size="0"
       apply_no_weight="true"
       apply_with_weight="true"
       only_selected="false" />
    <inkscape:path-effect
       effect="spiro"
       id="path-effect996"
       is_visible="true" />
  </defs>
  <sodipodi:namedview
     pagecolor="#ffffff"
     bordercolor="#666666"
     borderopacity="1"
     objecttolerance="10"
     gridtolerance="10"
     guidetolerance="10"
     inkscape:pageopacity="0"
     inkscape:pageshadow="2"
     inkscape:window-width="1546"
     inkscape:window-height="845"
     id="namedview4"
     showgrid="false"
     inkscape:zoom="0.25"
     inkscape:cx="526.92954"
     inkscape:cy="1252.8346"
     inkscape:window-x="54"
     inkscape:window-y="27"
     inkscape:window-maximized="1"
     inkscape:current-layer="svg2"
     showguides="true"
     inkscape:guide-bbox="true"
     inkscape:snap-global="false" />
  <g
     id="g1081"
     transform="translate(-26.198034,0.08654822)">
    <g
       id="g1073">
      <g
         id="g880"
         transform="translate(-566.41036,33.509668)">
        <path
           id="path875"
           d="M 853.23047,13.619141 V 255.35938 L 1039.4941,13.619141 Z m 41.99414,258.050779 -41.99414,53.8418 v 160.5039 h 197.93163 z"
           style="opacity:1;fill:#0b0d0c;fill-opacity:1;stroke:none;stroke-width:27.96850395;stroke-linecap:round;stroke-linejoin:round;stroke-miterlimit:4;stroke-dasharray:none;stroke-opacity:1"
           inkscape:connector-curvature="0" />
        <path
           id="path873"
           d="M 1078.8047,47.69839 936.5762,228.5519 1078.8047,424.05581 Z"
           style="opacity:1;fill:#a89435;fill-opacity:1;stroke:none;stroke-width:27.96850395;stroke-linecap:round;stroke-linejoin:round;stroke-miterlimit:4;stroke-dasharray:none;stroke-opacity:1"
           inkscape:connector-curvature="0" />
      </g>
      <path
         style="opacity:1;fill:#0b0d0c;fill-opacity:1;stroke:none;stroke-width:27.96850395;stroke-linecap:round;stroke-linejoin:round;stroke-miterlimit:4;stroke-dasharray:none;stroke-opacity:1"
         d="m 677.98438,577.64258 c -17.86996,-0.0197 -39.26316,7.34569 -44.5918,27.23242 -2.71054,10.11588 0.12676,22.07449 7.41992,28.94531 11.14684,10.50133 25.69235,10.83169 36.97852,12.93946 16.85378,3.14755 29.86926,4.13788 29.95898,20.74023 0.0703,13.00348 -12.68066,19.97814 -30.41797,20.28516 -20.96683,0.36292 -38.68869,-9.71701 -45.13476,-16.21485 v 20.91407 c 6.76183,3.04944 23.2718,9.53687 45.5332,9.20117 24.97659,-0.37664 45.57119,-13.33742 46.76758,-37.07422 0.38378,-7.61434 -4.05189,-19.05771 -11.78907,-23.21289 -17.34714,-10.70622 -36.60211,-8.69132 -53.55664,-15.07813 -6.94634,-3.04726 -10.38098,-8.03388 -10.16211,-14.58789 C 650.01099,581.16658 699.73436,590 718.85938,604.875 V 586 c 0,0 -16.73779,-7.08718 -37.35352,-8.25586 -1.1542,-0.0654 -2.33017,-0.10025 -3.52148,-0.10156 z m -247.29688,1.61914 v 0.4414 h -15.41602 v 120.15235 h 15.41602 v 0.13086 c 22.73505,0.19075 45.47129,0.38235 61.02344,-9.03125 15.55215,-9.41361 23.91656,-28.42448 24.60547,-48.51758 0.6889,-20.0931 -6.29746,-41.26392 -21.84766,-51.97266 -15.5502,-10.70873 -39.6651,-10.95568 -63.78125,-11.20312 z m -356.8125,0.0332 v 120.56055 h 16.25 v -40.91211 l 11.82227,-12.79688 1.39648,1.58594 45.90625,52.12305 h 21 l -56.01172,-63.59766 54.08594,-56.96289 H 163.70312 148.25 L 90.125,642.2168 v -62.92188 z m 124.59375,0.4082 v 120.15235 h 15.25391 63.21484 v -14.37109 h -63.21484 v -44.49415 h 63.21484 v -14.12109 h -63.21484 v -33.06836 h 63.21484 v -14.09766 h -63.21484 z m 101.875,0 V 699.85547 H 314.875 V 591.81055 l 57.48047,108.04492 h 19.25 V 579.70312 h -14.82422 v 98.02149 L 324.7832,579.70312 Z m 219.96289,0 43.01172,69.33008 -0.0195,50.82227 h 15.25781 v -52.94531 l 42.09961,-67.20704 h -16.8418 l -33.01562,53.80079 -32.83399,-53.80079 z m -89.61914,13.31446 c 19.53825,0.19108 39.07548,0.38079 51.67383,8.65039 12.59835,8.26959 18.2593,24.61835 17.70117,40.13476 -0.55813,15.51642 -7.33561,30.19735 -19.93555,37.4668 -12.59993,7.26945 -31.02013,7.12192 -49.43945,6.97461 z"
         id="path1066"
         inkscape:connector-curvature="0" />
    </g>
    <path
       id="path873-3"
       d="M 166.75,597.42578 132.12109,634.43945 166.75,674.44922 Z"
       style="opacity:1;fill:#a89435;fill-opacity:1;stroke:none;stroke-width:27.96850395;stroke-linecap:round;stroke-linejoin:round;stroke-miterlimit:4;stroke-dasharray:none;stroke-opacity:1"
       inkscape:connector-curvature="0" />
  </g>
</svg>
